<svg version="1.1" viewBox="0.0 0.0 960.0 720.0" fill="none" stroke="none" stroke-linecap="square" stroke-miterlimit="10" xmlns:xlink="http://www.w3.org/1999/xlink" xmlns="http://www.w3.org/2000/svg"><clipPath id="p.0"><path d="m0 0l960.0 0l0 720.0l-960.0 0l0 -720.0z" clip-rule="nonzero"/></clipPath><g clip-path="url(#p.0)"><path fill="#000000" fill-opacity="0.0" d="m0 0l960.0 0l0 720.0l-960.0 0z" fill-rule="evenodd"/><path fill="#b7b7b7" d="m120.0 360.0l0 0c0 -198.82251 161.17749 -360.0 360.0 -360.0l0 0c95.47797 0 187.04535 37.928463 254.55847 105.44156c67.51306 67.51309 105.44153 159.0805 105.44153 254.55844l0 0c0 198.82251 -161.17749 360.0 -360.0 360.0l0 0c-198.82251 0 -360.0 -161.17749 -360.0 -360.0z" fill-rule="evenodd"/><path stroke="#000000" stroke-width="8.0" stroke-linejoin="round" stroke-linecap="butt" d="m120.0 360.0l0 0c0 -198.82251 161.17749 -360.0 360.0 -360.0l0 0c95.47797 0 187.04535 37.928463 254.55847 105.44156c67.51306 67.51309 105.44153 159.0805 105.44153 254.55844l0 0c0 198.82251 -161.17749 360.0 -360.0 360.0l0 0c-198.82251 0 -360.0 -161.17749 -360.0 -360.0z" fill-rule="evenodd"/><path fill="#434343" d="m378.53543 145.46457l0 0c0 -56.03734 45.427246 -101.46457 101.46457 -101.46457l0 0c26.910065 0 52.717957 10.689987 71.74628 29.718285c19.02832 19.028297 29.718262 44.836205 29.718262 71.746284l0 0c0 56.03734 -45.427185 101.46457 -101.46454 101.46457l0 0c-56.037323 0 -101.46457 -45.42723 -101.46457 -101.46457z" fill-rule="evenodd"/><path stroke="#000000" stroke-width="12.0" stroke-linejoin="round" stroke-linecap="butt" d="m378.53543 145.46457l0 0c0 -56.03734 45.427246 -101.46457 101.46457 -101.46457l0 0c26.910065 0 52.717957 10.689987 71.74628 29.718285c19.02832 19.028297 29.718262 44.836205 29.718262 71.746284l0 0c0 56.03734 -45.427185 101.46457 -101.46454 101.46457l0 0c-56.037323 0 -101.46457 -45.42723 -101.46457 -101.46457z" fill-rule="evenodd"/><path fill="#434343" d="m378.53543 574.53546l0 0c0 -56.037354 45.427246 -101.4646 101.46457 -101.4646l0 0c26.910065 0 52.717957 10.690002 71.74628 29.718292c19.02832 19.02829 29.718262 44.836212 29.718262 71.74631l0 0c0 56.037292 -45.427185 101.46454 -101.46454 101.46454l0 0c-56.037323 0 -101.46457 -45.427246 -101.46457 -101.46454z" fill-rule="evenodd"/><path stroke="#000000" stroke-width="12.0" stroke-linejoin="round" stroke-linecap="butt" d="m378.53543 574.53546l0 0c0 -56.037354 45.427246 -101.4646 101.46457 -101.4646l0 0c26.910065 0 52.717957 10.690002 71.74628 29.718292c19.02832 19.02829 29.718262 44.836212 29.718262 71.74631l0 0c0 56.037292 -45.427185 101.46454 -101.46454 101.46454l0 0c-56.037323 0 -101.46457 -45.427246 -101.46457 -101.46454z" fill-rule="evenodd"/><path fill="#434343" d="m593.07086 360.0l0 0c0 -56.037323 45.427246 -101.46457 101.4646 -101.46457l0 0c26.910034 0 52.717957 10.690002 71.74628 29.718292c19.02826 19.02829 29.718262 44.836212 29.718262 71.74628l0 0c0 56.037323 -45.427246 101.46457 -101.46454 101.46457l0 0c-56.037354 0 -101.4646 -45.427246 -101.4646 -101.46457z" fill-rule="evenodd"/><path stroke="#000000" stroke-width="12.0" stroke-linejoin="round" stroke-linecap="butt" d="m593.07086 360.0l0 0c0 -56.037323 45.427246 -101.46457 101.4646 -101.46457l0 0c26.910034 0 52.717957 10.690002 71.74628 29.718292c19.02826 19.02829 29.718262 44.836212 29.718262 71.74628l0 0c0 56.037323 -45.427246 101.46457 -101.46454 101.46457l0 0c-56.037354 0 -101.4646 -45.427246 -101.4646 -101.46457z" fill-rule="evenodd"/><path fill="#434343" d="m164.0 360.0l0 0c0 -56.037323 45.42723 -101.46457 101.46457 -101.46457l0 0c26.910065 0 52.717987 10.690002 71.74628 29.718292c19.02829 19.02829 29.718292 44.836212 29.718292 71.74628l0 0c0 56.037323 -45.427246 101.46457 -101.46457 101.46457l0 0c-56.03734 0 -101.46457 -45.427246 -101.46457 -101.46457z" fill-rule="evenodd"/><path stroke="#000000" stroke-width="12.0" stroke-linejoin="round" stroke-linecap="butt" d="m164.0 360.0l0 0c0 -56.037323 45.42723 -101.46457 101.46457 -101.46457l0 0c26.910065 0 52.717987 10.690002 71.74628 29.718292c19.02829 19.02829 29.718292 44.836212 29.718292 71.74628l0 0c0 56.037323 -45.427246 101.46457 -101.46457 101.46457l0 0c-56.03734 0 -101.46457 -45.427246 -101.46457 -101.46457z" fill-rule="evenodd"/><path fill="#434343" d="m466.61417 360.0l0 0c0 -7.3927917 5.993042 -13.385834 13.385834 -13.385834l0 0c3.5501404 0 6.9548645 1.4103088 9.46521 3.9206238c2.510315 2.5103455 3.9206238 5.9150696 3.9206238 9.46521l0 0c0 7.3927917 -5.993042 13.385834 -13.385834 13.385834l0 0c-7.3927917 0 -13.385834 -5.993042 -13.385834 -13.385834z" fill-rule="evenodd"/><path stroke="#000000" stroke-width="4.0" stroke-linejoin="round" stroke-linecap="butt" d="m466.61417 360.0l0 0c0 -7.3927917 5.993042 -13.385834 13.385834 -13.385834l0 0c3.5501404 0 6.9548645 1.4103088 9.46521 3.9206238c2.510315 2.5103455 3.9206238 5.9150696 3.9206238 9.46521l0 0c0 7.3927917 -5.993042 13.385834 -13.385834 13.385834l0 0c-7.3927917 0 -13.385834 -5.993042 -13.385834 -13.385834z" fill-rule="evenodd"/><path fill="#434343" d="m502.61417 314.77167l0 0c0 -12.489471 10.124725 -22.614197 22.614166 -22.614197l0 0c5.9976807 0 11.749695 2.3825684 15.990662 6.623535c4.240967 4.2409973 6.623535 9.992981 6.623535 15.990662l0 0c0 12.489441 -10.124695 22.614166 -22.614197 22.614166l0 0c-12.489441 0 -22.614166 -10.124725 -22.614166 -22.614166z" fill-rule="evenodd"/><path stroke="#000000" stroke-width="4.0" stroke-linejoin="round" stroke-linecap="butt" d="m502.61417 314.77167l0 0c0 -12.489471 10.124725 -22.614197 22.614166 -22.614197l0 0c5.9976807 0 11.749695 2.3825684 15.990662 6.623535c4.240967 4.2409973 6.623535 9.992981 6.623535 15.990662l0 0c0 12.489441 -10.124695 22.614166 -22.614197 22.614166l0 0c-12.489441 0 -22.614166 -10.124725 -22.614166 -22.614166z" fill-rule="evenodd"/><path fill="#434343" d="m502.61417 405.22833l0 0c0 -12.489441 10.124725 -22.614166 22.614166 -22.614166l0 0c5.9976807 0 11.749695 2.3825684 15.990662 6.623535c4.240967 4.2409973 6.623535 9.992981 6.623535 15.990631l0 0c0 12.489471 -10.124695 22.614197 -22.614197 22.614197l0 0c-12.489441 0 -22.614166 -10.124725 -22.614166 -22.614197z" fill-rule="evenodd"/><path stroke="#000000" stroke-width="4.0" stroke-linejoin="round" stroke-linecap="butt" d="m502.61417 405.22833l0 0c0 -12.489441 10.124725 -22.614166 22.614166 -22.614166l0 0c5.9976807 0 11.749695 2.3825684 15.990662 6.623535c4.240967 4.2409973 6.623535 9.992981 6.623535 15.990631l0 0c0 12.489471 -10.124695 22.614197 -22.614197 22.614197l0 0c-12.489441 0 -22.614166 -10.124725 -22.614166 -22.614197z" fill-rule="evenodd"/><path fill="#434343" d="m412.15747 314.77167l0 0c0 -12.489471 10.124725 -22.614197 22.614197 -22.614197l0 0c5.99765 0 11.749634 2.3825684 15.990631 6.623535c4.240967 4.2409973 6.623535 9.992981 6.623535 15.990662l0 0c0 12.489441 -10.124725 22.614166 -22.614166 22.614166l0 0c-12.489471 0 -22.614197 -10.124725 -22.614197 -22.614166z" fill-rule="evenodd"/><path stroke="#000000" stroke-width="4.0" stroke-linejoin="round" stroke-linecap="butt" d="m412.15747 314.77167l0 0c0 -12.489471 10.124725 -22.614197 22.614197 -22.614197l0 0c5.99765 0 11.749634 2.3825684 15.990631 6.623535c4.240967 4.2409973 6.623535 9.992981 6.623535 15.990662l0 0c0 12.489441 -10.124725 22.614166 -22.614166 22.614166l0 0c-12.489471 0 -22.614197 -10.124725 -22.614197 -22.614166z" fill-rule="evenodd"/><path fill="#434343" d="m412.15747 405.22833l0 0c0 -12.489441 10.124725 -22.614166 22.614197 -22.614166l0 0c5.99765 0 11.749634 2.3825684 15.990631 6.623535c4.240967 4.2409973 6.623535 9.992981 6.623535 15.990631l0 0c0 12.489471 -10.124725 22.614197 -22.614166 22.614197l0 0c-12.489471 0 -22.614197 -10.124725 -22.614197 -22.614197z" fill-rule="evenodd"/><path stroke="#000000" stroke-width="4.0" stroke-linejoin="round" stroke-linecap="butt" d="m412.15747 405.22833l0 0c0 -12.489441 10.124725 -22.614166 22.614197 -22.614166l0 0c5.99765 0 11.749634 2.3825684 15.990631 6.623535c4.240967 4.2409973 6.623535 9.992981 6.623535 15.990631l0 0c0 12.489471 -10.124725 22.614197 -22.614166 22.614197l0 0c-12.489471 0 -22.614197 -10.124725 -22.614197 -22.614197z" fill-rule="evenodd"/><path fill="#000000" fill-opacity="0.0" d="m182.85039 360.0l0 0c0 -164.11989 133.0384 -297.16534 297.1496 -297.16534l0 0c78.80896 0 154.39014 31.308407 210.11652 87.03772c55.72632 55.729324 87.03308 131.3145 87.03308 210.12764l0 0c0 164.11987 -133.03839 297.16534 -297.1496 297.16534l0 0c-164.1112 0 -297.1496 -133.04547 -297.1496 -297.16534z" fill-rule="evenodd"/><path stroke="#f3f3f3" stroke-width="1.0" stroke-linejoin="round" stroke-linecap="butt" d="m182.85039 360.0l0 0c0 -164.11989 133.0384 -297.16534 297.1496 -297.16534l0 0c78.80896 0 154.39014 31.308407 210.11652 87.03772c55.72632 55.729324 87.03308 131.3145 87.03308 210.12764l0 0c0 164.11987 -133.03839 297.16534 -297.1496 297.16534l0 0c-164.1112 0 -297.1496 -133.04547 -297.1496 -297.16534z" fill-rule="evenodd"/><path fill="#000000" fill-opacity="0.0" d="m212.83464 360.0l0 0c0 -147.55135 119.614 -267.16534 267.16534 -267.16534l0 0c70.85663 0 138.81122 28.147697 188.91443 78.25092c50.10321 50.10321 78.250916 118.05777 78.250916 188.91443l0 0c0 147.55136 -119.61401 267.16534 -267.16534 267.16534l0 0c-147.55136 0 -267.16534 -119.61398 -267.16534 -267.16534z" fill-rule="evenodd"/><path stroke="#f3f3f3" stroke-width="1.0" stroke-linejoin="round" stroke-linecap="butt" d="m212.83464 360.0l0 0c0 -147.55135 119.614 -267.16534 267.16534 -267.16534l0 0c70.85663 0 138.81122 28.147697 188.91443 78.25092c50.10321 50.10321 78.250916 118.05777 78.250916 188.91443l0 0c0 147.55136 -119.61401 267.16534 -267.16534 267.16534l0 0c-147.55136 0 -267.16534 -119.61398 -267.16534 -267.16534z" fill-rule="evenodd"/><path fill="#000000" fill-opacity="0.0" d="m250.67717 365.95013l0 0c0 -126.651505 102.67134 -229.32283 229.32283 -229.32283l0 0c60.82019 0 119.14935 24.16072 162.15576 67.1671c43.006348 43.00638 67.16705 101.33554 67.16705 162.15573l0 0c0 126.65149 -102.671326 229.32281 -229.32281 229.32281l0 0c-126.65149 0 -229.32283 -102.671326 -229.32283 -229.32281z" fill-rule="evenodd"/><path stroke="#f3f3f3" stroke-width="1.0" stroke-linejoin="round" stroke-linecap="butt" d="m250.67717 365.95013l0 0c0 -126.651505 102.67134 -229.32283 229.32283 -229.32283l0 0c60.82019 0 119.14935 24.16072 162.15576 67.1671c43.006348 43.00638 67.16705 101.33554 67.16705 162.15573l0 0c0 126.65149 -102.671326 229.32281 -229.32281 229.32281l0 0c-126.65149 0 -229.32283 -102.671326 -229.32283 -229.32281z" fill-rule="evenodd"/><path fill="#000000" fill-opacity="0.0" d="m288.37796 360.0l0 0c0 -105.82994 85.792114 -191.62204 191.62204 -191.62204l0 0c50.82135 0 99.56116 20.18869 135.49725 56.124786c35.936096 35.936096 56.124817 84.675934 56.124817 135.49725l0 0c0 105.829926 -85.792114 191.62207 -191.62207 191.62207l0 0c-105.829926 0 -191.62204 -85.792145 -191.62204 -191.62207z" fill-rule="evenodd"/><path stroke="#f3f3f3" stroke-width="1.0" stroke-linejoin="round" stroke-linecap="butt" d="m288.37796 360.0l0 0c0 -105.82994 85.792114 -191.62204 191.62204 -191.62204l0 0c50.82135 0 99.56116 20.18869 135.49725 56.124786c35.936096 35.936096 56.124817 84.675934 56.124817 135.49725l0 0c0 105.829926 -85.792114 191.62207 -191.62207 191.62207l0 0c-105.829926 0 -191.62204 -85.792145 -191.62204 -191.62207z" fill-rule="evenodd"/><path fill="#000000" fill-opacity="0.0" d="m330.75592 360.0l0 0c0 -82.42523 66.81885 -149.2441 149.24408 -149.2441l0 0c39.58197 0 77.542786 15.723892 105.531494 43.712585c27.988708 27.988693 43.712585 65.94951 43.712585 105.53151l0 0c0 82.42523 -66.81885 149.24408 -149.24408 149.24408l0 0c-82.42523 0 -149.24408 -66.81885 -149.24408 -149.24408z" fill-rule="evenodd"/><path stroke="#f3f3f3" stroke-width="1.0" stroke-linejoin="round" stroke-linecap="butt" d="m330.75592 360.0l0 0c0 -82.42523 66.81885 -149.2441 149.24408 -149.2441l0 0c39.58197 0 77.542786 15.723892 105.531494 43.712585c27.988708 27.988693 43.712585 65.94951 43.712585 105.53151l0 0c0 82.42523 -66.81885 149.24408 -149.24408 149.24408l0 0c-82.42523 0 -149.24408 -66.81885 -149.24408 -149.24408z" fill-rule="evenodd"/><path fill="#000000" fill-opacity="0.0" d="m365.87402 145.46457l0 0c0 -63.030045 51.095947 -114.125984 114.12598 -114.125984l0 0c30.268097 0 59.29651 12.023954 80.69928 33.426727c21.402771 21.402771 33.426697 50.43116 33.426697 80.69926l0 0c0 63.030045 -51.095947 114.12598 -114.12598 114.12598l0 0c-63.03003 0 -114.12598 -51.095932 -114.12598 -114.12598z" fill-rule="evenodd"/><path stroke="#b7b7b7" stroke-width="24.0" stroke-linejoin="round" stroke-linecap="butt" d="m365.87402 145.46457l0 0c0 -63.030045 51.095947 -114.125984 114.12598 -114.125984l0 0c30.268097 0 59.29651 12.023954 80.69928 33.426727c21.402771 21.402771 33.426697 50.43116 33.426697 80.69926l0 0c0 63.030045 -51.095947 114.12598 -114.12598 114.12598l0 0c-63.03003 0 -114.12598 -51.095932 -114.12598 -114.12598z" fill-rule="evenodd"/><path fill="#000000" fill-opacity="0.0" d="m151.33858 360.0l0 0c0 -63.03003 51.095947 -114.12599 114.12599 -114.12599l0 0c30.268097 0 59.29648 12.023972 80.69925 33.426743c21.402771 21.402771 33.426727 50.431152 33.426727 80.69925l0 0c0 63.03003 -51.095947 114.12598 -114.12598 114.12598l0 0c-63.030045 0 -114.12599 -51.095947 -114.12599 -114.12598z" fill-rule="evenodd"/><path stroke="#b7b7b7" stroke-width="24.0" stroke-linejoin="round" stroke-linecap="butt" d="m151.33858 360.0l0 0c0 -63.03003 51.095947 -114.12599 114.12599 -114.12599l0 0c30.268097 0 59.29648 12.023972 80.69925 33.426743c21.402771 21.402771 33.426727 50.431152 33.426727 80.69925l0 0c0 63.03003 -51.095947 114.12598 -114.12598 114.12598l0 0c-63.030045 0 -114.12599 -51.095947 -114.12599 -114.12598z" fill-rule="evenodd"/><path fill="#000000" fill-opacity="0.0" d="m580.4094 360.0l0 0c0 -63.03003 51.095947 -114.12599 114.12604 -114.12599l0 0c30.268066 0 59.296448 12.023972 80.69922 33.426743c21.402771 21.402771 33.426758 50.431152 33.426758 80.69925l0 0c0 63.03003 -51.095947 114.12598 -114.12598 114.12598l0 0c-63.03009 0 -114.12604 -51.095947 -114.12604 -114.12598z" fill-rule="evenodd"/><path stroke="#b7b7b7" stroke-width="24.0" stroke-linejoin="round" stroke-linecap="butt" d="m580.4094 360.0l0 0c0 -63.03003 51.095947 -114.12599 114.12604 -114.12599l0 0c30.268066 0 59.296448 12.023972 80.69922 33.426743c21.402771 21.402771 33.426758 50.431152 33.426758 80.69925l0 0c0 63.03003 -51.095947 114.12598 -114.12598 114.12598l0 0c-63.03009 0 -114.12604 -51.095947 -114.12604 -114.12598z" fill-rule="evenodd"/><path fill="#000000" fill-opacity="0.0" d="m365.87402 574.53546l0 0c0 -63.03006 51.095947 -114.12601 114.12598 -114.12601l0 0c30.268097 0 59.29651 12.023956 80.69928 33.426727c21.402771 21.402771 33.426697 50.431152 33.426697 80.69928l0 0c0 63.03003 -51.095947 114.12598 -114.12598 114.12598l0 0c-63.03003 0 -114.12598 -51.095947 -114.12598 -114.12598z" fill-rule="evenodd"/><path stroke="#b7b7b7" stroke-width="24.0" stroke-linejoin="round" stroke-linecap="butt" d="m365.87402 574.53546l0 0c0 -63.03006 51.095947 -114.12601 114.12598 -114.12601l0 0c30.268097 0 59.29651 12.023956 80.69928 33.426727c21.402771 21.402771 33.426697 50.431152 33.426697 80.69928l0 0c0 63.03003 -51.095947 114.12598 -114.12598 114.12598l0 0c-63.03003 0 -114.12598 -51.095947 -114.12598 -114.12598z" fill-rule="evenodd"/><path fill="#b7b7b7" d="m353.9843 144.84982l51.8609 113.49344l-27.501343 27.501343l-113.49341 -51.860916z" fill-rule="evenodd"/><path fill="#b7b7b7" d="m687.9633 241.52174l-113.49341 51.860916l-27.501343 -27.501343l51.8609 -113.49344z" fill-rule="evenodd"/><path fill="#b7b7b7" d="m264.7885 489.5548l111.06204 -56.889587l28.710602 26.251617l-46.733276 115.70883z" fill-rule="evenodd"/><path fill="#b7b7b7" d="m604.11554 574.8446l-51.8609 -113.49344l27.501343 -27.501343l113.49341 51.8609z" fill-rule="evenodd"/><path fill="#b7b7b7" d="m378.01575 35.55892l-8.33551 142.40463l-66.3526 66.37184l-142.38275 8.357391z" fill-rule="evenodd"/><path fill="#b7b7b7" d="m800.3097 252.66129l-142.4046 -8.3355255l-66.371826 -66.352585l-8.357422 -142.38275z" fill-rule="evenodd"/><path fill="#b7b7b7" d="m160.91339 465.03137l142.40463 8.33551l66.371826 66.3526l8.357391 142.38275z" fill-rule="evenodd"/><path fill="#b7b7b7" d="m583.20734 682.1337l8.33551 -142.40466l66.3526 -66.371826l142.38275 -8.357361z" fill-rule="evenodd"/><path fill="#000000" fill-opacity="0.0" d="m415.92126 360.0l0 0c0 -35.38971 28.689026 -64.078735 64.078735 -64.078735l0 0c16.994751 0 33.293396 6.751129 45.310486 18.768219c12.017151 12.01709 18.76825 28.315765 18.76825 45.310516l0 0c0 35.38971 -28.689026 64.078735 -64.078735 64.078735l0 0c-35.38971 0 -64.078735 -28.689026 -64.078735 -64.078735z" fill-rule="evenodd"/><path stroke="#f3f3f3" stroke-width="1.0" stroke-linejoin="round" stroke-linecap="butt" d="m415.92126 360.0l0 0c0 -35.38971 28.689026 -64.078735 64.078735 -64.078735l0 0c16.994751 0 33.293396 6.751129 45.310486 18.768219c12.017151 12.01709 18.76825 28.315765 18.76825 45.310516l0 0c0 35.38971 -28.689026 64.078735 -64.078735 64.078735l0 0c-35.38971 0 -64.078735 -28.689026 -64.078735 -64.078735z" fill-rule="evenodd"/><path fill="#000000" fill-opacity="0.0" d="m396.37534 314.17715l0 0c0 -20.795471 16.858063 -37.653534 37.653534 -37.653534l0 0c9.986328 0 19.56366 3.9670715 26.625092 11.028473c7.0614014 7.0614014 11.028442 16.638733 11.028442 26.625061l0 0c0 20.795502 -16.858063 37.653564 -37.653534 37.653564l0 0c-20.795471 0 -37.653534 -16.858063 -37.653534 -37.653564z" fill-rule="evenodd"/><path stroke="#b7b7b7" stroke-width="24.0" stroke-linejoin="round" stroke-linecap="butt" d="m396.37534 314.17715l0 0c0 -20.795471 16.858063 -37.653534 37.653534 -37.653534l0 0c9.986328 0 19.56366 3.9670715 26.625092 11.028473c7.0614014 7.0614014 11.028442 16.638733 11.028442 26.625061l0 0c0 20.795502 -16.858063 37.653564 -37.653534 37.653564l0 0c-20.795471 0 -37.653534 -16.858063 -37.653534 -37.653564z" fill-rule="evenodd"/><path fill="#000000" fill-opacity="0.0" d="m488.46588 314.17715l0 0c0 -20.795471 16.858063 -37.653534 37.653564 -37.653534l0 0c9.986328 0 19.56366 3.9670715 26.625061 11.028473c7.0614014 7.0614014 11.028442 16.638733 11.028442 26.625061l0 0c0 20.795502 -16.858032 37.653564 -37.653503 37.653564l0 0c-20.795502 0 -37.653564 -16.858063 -37.653564 -37.653564z" fill-rule="evenodd"/><path stroke="#b7b7b7" stroke-width="24.0" stroke-linejoin="round" stroke-linecap="butt" d="m488.46588 314.17715l0 0c0 -20.795471 16.858063 -37.653534 37.653564 -37.653534l0 0c9.986328 0 19.56366 3.9670715 26.625061 11.028473c7.0614014 7.0614014 11.028442 16.638733 11.028442 26.625061l0 0c0 20.795502 -16.858032 37.653564 -37.653503 37.653564l0 0c-20.795502 0 -37.653564 -16.858063 -37.653564 -37.653564z" fill-rule="evenodd"/><path fill="#000000" fill-opacity="0.0" d="m396.52362 406.12073l0 0c0 -20.795471 16.858063 -37.653534 37.653534 -37.653534l0 0c9.986359 0 19.56369 3.9670715 26.625092 11.028473c7.0614014 7.0614014 11.028473 16.638733 11.028473 26.625061l0 0c0 20.795471 -16.858063 37.653564 -37.653564 37.653564l0 0c-20.795471 0 -37.653534 -16.858093 -37.653534 -37.653564z" fill-rule="evenodd"/><path stroke="#b7b7b7" stroke-width="24.0" stroke-linejoin="round" stroke-linecap="butt" d="m396.52362 406.12073l0 0c0 -20.795471 16.858063 -37.653534 37.653534 -37.653534l0 0c9.986359 0 19.56369 3.9670715 26.625092 11.028473c7.0614014 7.0614014 11.028473 16.638733 11.028473 26.625061l0 0c0 20.795471 -16.858063 37.653564 -37.653564 37.653564l0 0c-20.795471 0 -37.653534 -16.858093 -37.653534 -37.653564z" fill-rule="evenodd"/><path fill="#000000" fill-opacity="0.0" d="m488.7638 406.41733l0 0c0 -20.795471 16.858063 -37.653534 37.653503 -37.653534l0 0c9.986389 0 19.56372 3.967041 26.625122 11.028442c7.0614014 7.061432 11.028442 16.638733 11.028442 26.625092l0 0c0 20.795471 -16.858032 37.653534 -37.653564 37.653534l0 0c-20.79544 0 -37.653503 -16.858063 -37.653503 -37.653534z" fill-rule="evenodd"/><path stroke="#b7b7b7" stroke-width="24.0" stroke-linejoin="round" stroke-linecap="butt" d="m488.7638 406.41733l0 0c0 -20.795471 16.858063 -37.653534 37.653503 -37.653534l0 0c9.986389 0 19.56372 3.967041 26.625122 11.028442c7.0614014 7.061432 11.028442 16.638733 11.028442 26.625092l0 0c0 20.795471 -16.858032 37.653534 -37.653564 37.653534l0 0c-20.79544 0 -37.653503 -16.858063 -37.653503 -37.653534z" fill-rule="evenodd"/></g></svg>