<svg version="1.1" viewBox="0.0 0.0 960.0 720.0" fill="none" stroke="none" stroke-linecap="square" stroke-miterlimit="10" xmlns:xlink="http://www.w3.org/1999/xlink" xmlns="http://www.w3.org/2000/svg"><clipPath id="p.0"><path d="m0 0l960.0 0l0 720.0l-960.0 0l0 -720.0z" clip-rule="nonzero"/></clipPath><g clip-path="url(#p.0)"><path fill="#000000" fill-opacity="0.0" d="m0 0l960.0 0l0 720.0l-960.0 0z" fill-rule="evenodd"/><path fill="#b7b7b7" d="m128.48819 360.0l0 0c0 -194.13461 157.3772 -351.5118 351.5118 -351.5118l0 0c93.226746 0 182.63513 37.034172 248.5564 102.95542c65.921265 65.92126 102.955444 155.32968 102.955444 248.5564l0 0c0 194.13458 -157.37726 351.51184 -351.51184 351.51184l0 0c-194.13461 0 -351.5118 -157.37726 -351.5118 -351.51184z" fill-rule="evenodd"/><path stroke="#000000" stroke-width="8.0" stroke-linejoin="round" stroke-linecap="butt" d="m128.48819 360.0l0 0c0 -194.13461 157.3772 -351.5118 351.5118 -351.5118l0 0c93.226746 0 182.63513 37.034172 248.5564 102.95542c65.921265 65.92126 102.955444 155.32968 102.955444 248.5564l0 0c0 194.13458 -157.37726 351.51184 -351.51184 351.51184l0 0c-194.13461 0 -351.5118 -157.37726 -351.5118 -351.51184z" fill-rule="evenodd"/><path fill="#434343" d="m380.9325 150.52242l0 0c0 -54.715332 44.35556 -99.07087 99.07089 -99.07087l0 0c26.275208 0 51.474274 10.437794 70.05368 29.017181c18.579407 18.579391 29.01715 43.778458 29.01715 70.05369l0 0c0 54.715332 -44.35553 99.07086 -99.07083 99.07086l0 0c-54.715332 0 -99.07089 -44.35553 -99.07089 -99.07086z" fill-rule="evenodd"/><path stroke="#000000" stroke-width="12.0" stroke-linejoin="round" stroke-linecap="butt" d="m380.9325 150.52242l0 0c0 -54.715332 44.35556 -99.07087 99.07089 -99.07087l0 0c26.275208 0 51.474274 10.437794 70.05368 29.017181c18.579407 18.579391 29.01715 43.778458 29.01715 70.05369l0 0c0 54.715332 -44.35553 99.07086 -99.07083 99.07086l0 0c-54.715332 0 -99.07089 -44.35553 -99.07089 -99.07086z" fill-rule="evenodd"/><path fill="#434343" d="m380.9325 569.4843l0 0c0 -54.715332 44.35556 -99.07083 99.07089 -99.07083l0 0c26.275208 0 51.474274 10.437775 70.05368 29.017181c18.579407 18.579407 29.01715 43.778442 29.01715 70.05365l0 0c0 54.715332 -44.35553 99.07086 -99.07083 99.07086l0 0c-54.715332 0 -99.07089 -44.35553 -99.07089 -99.07086z" fill-rule="evenodd"/><path stroke="#000000" stroke-width="12.0" stroke-linejoin="round" stroke-linecap="butt" d="m380.9325 569.4843l0 0c0 -54.715332 44.35556 -99.07083 99.07089 -99.07083l0 0c26.275208 0 51.474274 10.437775 70.05368 29.017181c18.579407 18.579407 29.01715 43.778442 29.01715 70.05365l0 0c0 54.715332 -44.35553 99.07086 -99.07083 99.07086l0 0c-54.715332 0 -99.07089 -44.35553 -99.07089 -99.07086z" fill-rule="evenodd"/><path fill="#434343" d="m590.41345 360.0034l0 0c0 -54.715332 44.35553 -99.07089 99.07086 -99.07089l0 0c26.275269 0 51.474304 10.437805 70.05371 29.017212c18.579407 18.579376 29.01715 43.778442 29.01715 70.05368l0 0c0 54.7153 -44.35553 99.07086 -99.07086 99.07086l0 0c-54.715332 0 -99.07086 -44.35556 -99.07086 -99.07086z" fill-rule="evenodd"/><path stroke="#000000" stroke-width="12.0" stroke-linejoin="round" stroke-linecap="butt" d="m590.41345 360.0034l0 0c0 -54.715332 44.35553 -99.07089 99.07086 -99.07089l0 0c26.275269 0 51.474304 10.437805 70.05371 29.017212c18.579407 18.579376 29.01715 43.778442 29.01715 70.05368l0 0c0 54.7153 -44.35553 99.07086 -99.07086 99.07086l0 0c-54.715332 0 -99.07086 -44.35556 -99.07086 -99.07086z" fill-rule="evenodd"/><path fill="#434343" d="m171.45154 360.0034l0 0c0 -54.715332 44.355545 -99.07089 99.07086 -99.07089l0 0c26.275238 0 51.474304 10.437805 70.05368 29.017212c18.579407 18.579376 29.017212 43.778442 29.017212 70.05368l0 0c0 54.7153 -44.35556 99.07086 -99.07089 99.07086l0 0c-54.715317 0 -99.07086 -44.35556 -99.07086 -99.07086z" fill-rule="evenodd"/><path stroke="#000000" stroke-width="12.0" stroke-linejoin="round" stroke-linecap="butt" d="m171.45154 360.0034l0 0c0 -54.715332 44.355545 -99.07089 99.07086 -99.07089l0 0c26.275238 0 51.474304 10.437805 70.05368 29.017212c18.579407 18.579376 29.017212 43.778442 29.017212 70.05368l0 0c0 54.7153 -44.35556 99.07086 -99.07089 99.07086l0 0c-54.715317 0 -99.07086 -44.35556 -99.07086 -99.07086z" fill-rule="evenodd"/><path fill="#434343" d="m466.9361 360.00696l0 0c0 -7.218811 5.852051 -13.070862 13.070862 -13.070862l0 0c3.4666138 0 6.79126 1.3771057 9.242523 3.8283691c2.4512634 2.4512634 3.8283691 5.7759094 3.8283691 9.242493l0 0c0 7.2188416 -5.852051 13.070892 -13.070892 13.070892l0 0c-7.218811 0 -13.070862 -5.852051 -13.070862 -13.070892z" fill-rule="evenodd"/><path stroke="#000000" stroke-width="4.0" stroke-linejoin="round" stroke-linecap="butt" d="m466.9361 360.00696l0 0c0 -7.218811 5.852051 -13.070862 13.070862 -13.070862l0 0c3.4666138 0 6.79126 1.3771057 9.242523 3.8283691c2.4512634 2.4512634 3.8283691 5.7759094 3.8283691 9.242493l0 0c0 7.2188416 -5.852051 13.070892 -13.070892 13.070892l0 0c-7.218811 0 -13.070862 -5.852051 -13.070862 -13.070892z" fill-rule="evenodd"/><path fill="#434343" d="m502.08795 315.84116l0 0c0 -12.193756 9.884979 -22.078735 22.078735 -22.078735l0 0c5.855652 0 11.471436 2.3261414 15.6119995 6.4667053c4.140564 4.140564 6.466736 9.756378 6.466736 15.61203l0 0c0 12.193756 -9.88501 22.078735 -22.078735 22.078735l0 0c-12.193756 0 -22.078735 -9.884979 -22.078735 -22.078735z" fill-rule="evenodd"/><path stroke="#000000" stroke-width="4.0" stroke-linejoin="round" stroke-linecap="butt" d="m502.08795 315.84116l0 0c0 -12.193756 9.884979 -22.078735 22.078735 -22.078735l0 0c5.855652 0 11.471436 2.3261414 15.6119995 6.4667053c4.140564 4.140564 6.466736 9.756378 6.466736 15.61203l0 0c0 12.193756 -9.88501 22.078735 -22.078735 22.078735l0 0c-12.193756 0 -22.078735 -9.884979 -22.078735 -22.078735z" fill-rule="evenodd"/><path fill="#434343" d="m502.08795 404.1667l0 0c0 -12.193756 9.884979 -22.078735 22.078735 -22.078735l0 0c5.855652 0 11.471436 2.3261414 15.6119995 6.4667053c4.140564 4.140564 6.466736 9.756378 6.466736 15.61203l0 0c0 12.193756 -9.88501 22.078735 -22.078735 22.078735l0 0c-12.193756 0 -22.078735 -9.884979 -22.078735 -22.078735z" fill-rule="evenodd"/><path stroke="#000000" stroke-width="4.0" stroke-linejoin="round" stroke-linecap="butt" d="m502.08795 404.1667l0 0c0 -12.193756 9.884979 -22.078735 22.078735 -22.078735l0 0c5.855652 0 11.471436 2.3261414 15.6119995 6.4667053c4.140564 4.140564 6.466736 9.756378 6.466736 15.61203l0 0c0 12.193756 -9.88501 22.078735 -22.078735 22.078735l0 0c-12.193756 0 -22.078735 -9.884979 -22.078735 -22.078735z" fill-rule="evenodd"/><path fill="#434343" d="m413.76242 315.84116l0 0c0 -12.193756 9.884979 -22.078735 22.078735 -22.078735l0 0c5.855652 0 11.471466 2.3261414 15.61203 6.4667053c4.140564 4.140564 6.4667053 9.756378 6.4667053 15.61203l0 0c0 12.193756 -9.884979 22.078735 -22.078735 22.078735l0 0c-12.193756 0 -22.078735 -9.884979 -22.078735 -22.078735z" fill-rule="evenodd"/><path stroke="#000000" stroke-width="4.0" stroke-linejoin="round" stroke-linecap="butt" d="m413.76242 315.84116l0 0c0 -12.193756 9.884979 -22.078735 22.078735 -22.078735l0 0c5.855652 0 11.471466 2.3261414 15.61203 6.4667053c4.140564 4.140564 6.4667053 9.756378 6.4667053 15.61203l0 0c0 12.193756 -9.884979 22.078735 -22.078735 22.078735l0 0c-12.193756 0 -22.078735 -9.884979 -22.078735 -22.078735z" fill-rule="evenodd"/><path fill="#434343" d="m413.76242 404.1667l0 0c0 -12.193756 9.884979 -22.078735 22.078735 -22.078735l0 0c5.855652 0 11.471466 2.3261414 15.61203 6.4667053c4.140564 4.140564 6.4667053 9.756378 6.4667053 15.61203l0 0c0 12.193756 -9.884979 22.078735 -22.078735 22.078735l0 0c-12.193756 0 -22.078735 -9.884979 -22.078735 -22.078735z" fill-rule="evenodd"/><path stroke="#000000" stroke-width="4.0" stroke-linejoin="round" stroke-linecap="butt" d="m413.76242 404.1667l0 0c0 -12.193756 9.884979 -22.078735 22.078735 -22.078735l0 0c5.855652 0 11.471466 2.3261414 15.61203 6.4667053c4.140564 4.140564 6.4667053 9.756378 6.4667053 15.61203l0 0c0 12.193756 -9.884979 22.078735 -22.078735 22.078735l0 0c-12.193756 0 -22.078735 -9.884979 -22.078735 -22.078735z" fill-rule="evenodd"/><path fill="#000000" fill-opacity="0.0" d="m189.85782 359.99994l0 0c0 -160.24956 129.90088 -290.1575 290.14172 -290.1575l0 0c76.95041 0 150.74905 30.570076 205.16122 84.98516c54.41211 54.415085 84.98053 128.21777 84.98053 205.17233l0 0c0 160.24951 -129.90088 290.15747 -290.14175 290.15747l0 0c-160.24084 0 -290.14172 -129.90796 -290.14172 -290.15747z" fill-rule="evenodd"/><path stroke="#f3f3f3" stroke-width="1.0" stroke-linejoin="round" stroke-linecap="butt" d="m189.85782 359.99994l0 0c0 -160.24956 129.90088 -290.1575 290.14172 -290.1575l0 0c76.95041 0 150.74905 30.570076 205.16122 84.98516c54.41211 54.415085 84.98053 128.21777 84.98053 205.17233l0 0c0 160.24951 -129.90088 290.15747 -290.14175 290.15747l0 0c-160.24084 0 -290.14172 -129.90796 -290.14172 -290.15747z" fill-rule="evenodd"/><path fill="#000000" fill-opacity="0.0" d="m219.13565 360.00177l0 0c0 -144.07237 116.79373 -260.86612 260.86612 -260.86612l0 0c69.186035 0 135.53833 27.484032 184.4602 76.40592c48.921936 48.92189 76.405945 115.27423 76.405945 184.4602l0 0c0 144.07242 -116.79376 260.86615 -260.86615 260.86615l0 0c-144.07239 0 -260.86612 -116.79373 -260.86612 -260.86615z" fill-rule="evenodd"/><path stroke="#f3f3f3" stroke-width="1.0" stroke-linejoin="round" stroke-linecap="butt" d="m219.13565 360.00177l0 0c0 -144.07237 116.79373 -260.86612 260.86612 -260.86612l0 0c69.186035 0 135.53833 27.484032 184.4602 76.40592c48.921936 48.92189 76.405945 115.27423 76.405945 184.4602l0 0c0 144.07242 -116.79376 260.86615 -260.86615 260.86615l0 0c-144.07239 0 -260.86612 -116.79373 -260.86612 -260.86615z" fill-rule="evenodd"/><path fill="#000000" fill-opacity="0.0" d="m256.08658 365.8178l0 0c0 -123.668304 100.25296 -223.92128 223.92126 -223.92128l0 0c59.387604 0 116.342865 23.591644 158.33627 65.58502c41.993347 41.993378 65.58502 98.94862 65.58502 158.33626l0 0c0 123.668274 -100.25299 223.92126 -223.9213 223.92126l0 0c-123.668304 0 -223.92126 -100.25299 -223.92126 -223.92126z" fill-rule="evenodd"/><path stroke="#f3f3f3" stroke-width="1.0" stroke-linejoin="round" stroke-linecap="butt" d="m256.08658 365.8178l0 0c0 -123.668304 100.25296 -223.92128 223.92126 -223.92128l0 0c59.387604 0 116.342865 23.591644 158.33627 65.58502c41.993347 41.993378 65.58502 98.94862 65.58502 158.33626l0 0c0 123.668274 -100.25299 223.92126 -223.9213 223.92126l0 0c-123.668304 0 -223.92126 -100.25299 -223.92126 -223.92126z" fill-rule="evenodd"/><path fill="#000000" fill-opacity="0.0" d="m292.89914 360.0015l0 0c0 -103.33377 83.768585 -187.10236 187.10236 -187.10236l0 0c49.62265 0 97.21286 19.712524 132.30136 54.801025c35.0885 35.0885 54.801025 82.67871 54.801025 132.30133l0 0c0 103.3338 -83.768616 187.10239 -187.10239 187.10239l0 0c-103.33377 0 -187.10236 -83.768585 -187.10236 -187.10239z" fill-rule="evenodd"/><path stroke="#f3f3f3" stroke-width="1.0" stroke-linejoin="round" stroke-linecap="butt" d="m292.89914 360.0015l0 0c0 -103.33377 83.768585 -187.10236 187.10236 -187.10236l0 0c49.62265 0 97.21286 19.712524 132.30136 54.801025c35.0885 35.0885 54.801025 82.67871 54.801025 132.30133l0 0c0 103.3338 -83.768616 187.10239 -187.10239 187.10239l0 0c-103.33377 0 -187.10236 -83.768585 -187.10236 -187.10239z" fill-rule="evenodd"/><path fill="#000000" fill-opacity="0.0" d="m334.27866 360.01096l0 0c0 -80.48572 65.24658 -145.73228 145.7323 -145.73228l0 0c38.650604 0 75.71817 15.353897 103.04831 42.684006c27.330078 27.330109 42.68396 64.397675 42.68396 103.04828l0 0c0 80.48572 -65.24658 145.73227 -145.73227 145.73227l0 0c-80.48572 0 -145.7323 -65.24655 -145.7323 -145.73227z" fill-rule="evenodd"/><path stroke="#f3f3f3" stroke-width="1.0" stroke-linejoin="round" stroke-linecap="butt" d="m334.27866 360.01096l0 0c0 -80.48572 65.24658 -145.73228 145.7323 -145.73228l0 0c38.650604 0 75.71817 15.353897 103.04831 42.684006c27.330078 27.330109 42.68396 64.397675 42.68396 103.04828l0 0c0 80.48572 -65.24658 145.73227 -145.73227 145.73227l0 0c-80.48572 0 -145.7323 -65.24655 -145.7323 -145.73227z" fill-rule="evenodd"/><path fill="#000000" fill-opacity="0.0" d="m368.5694 150.5215l0 0c0 -61.542786 49.89029 -111.43307 111.433075 -111.43307l0 0c29.553894 0 57.89731 11.740234 78.795074 32.637993c20.897766 20.89775 32.638 49.241188 32.638 78.795074l0 0c0 61.542786 -49.89032 111.43306 -111.433075 111.43306l0 0c-61.542786 0 -111.433075 -49.890274 -111.433075 -111.43306z" fill-rule="evenodd"/><path stroke="#b7b7b7" stroke-width="24.0" stroke-linejoin="round" stroke-linecap="butt" d="m368.5694 150.5215l0 0c0 -61.542786 49.89029 -111.43307 111.433075 -111.43307l0 0c29.553894 0 57.89731 11.740234 78.795074 32.637993c20.897766 20.89775 32.638 49.241188 32.638 78.795074l0 0c0 61.542786 -49.89032 111.43306 -111.433075 111.43306l0 0c-61.542786 0 -111.433075 -49.890274 -111.433075 -111.43306z" fill-rule="evenodd"/><path fill="#000000" fill-opacity="0.0" d="m159.08842 360.00247l0 0c0 -61.542786 49.89029 -111.433075 111.43309 -111.433075l0 0c29.553864 0 57.89731 11.740234 78.795074 32.638c20.897736 20.897736 32.63797 49.24118 32.63797 78.795074l0 0c0 61.542786 -49.89026 111.433075 -111.433044 111.433075l0 0c-61.5428 0 -111.43309 -49.89029 -111.43309 -111.433075z" fill-rule="evenodd"/><path stroke="#b7b7b7" stroke-width="24.0" stroke-linejoin="round" stroke-linecap="butt" d="m159.08842 360.00247l0 0c0 -61.542786 49.89029 -111.433075 111.43309 -111.433075l0 0c29.553864 0 57.89731 11.740234 78.795074 32.638c20.897736 20.897736 32.63797 49.24118 32.63797 78.795074l0 0c0 61.542786 -49.89026 111.433075 -111.433044 111.433075l0 0c-61.5428 0 -111.43309 -49.89029 -111.43309 -111.433075z" fill-rule="evenodd"/><path fill="#000000" fill-opacity="0.0" d="m578.05035 360.00247l0 0c0 -61.542786 49.89026 -111.433075 111.433044 -111.433075l0 0c29.553894 0 57.89734 11.740234 78.795105 32.638c20.897766 20.897736 32.638 49.24118 32.638 78.795074l0 0c0 61.542786 -49.89032 111.433075 -111.433105 111.433075l0 0c-61.542786 0 -111.433044 -49.89029 -111.433044 -111.433075z" fill-rule="evenodd"/><path stroke="#b7b7b7" stroke-width="24.0" stroke-linejoin="round" stroke-linecap="butt" d="m578.05035 360.00247l0 0c0 -61.542786 49.89026 -111.433075 111.433044 -111.433075l0 0c29.553894 0 57.89734 11.740234 78.795105 32.638c20.897766 20.897736 32.638 49.24118 32.638 78.795074l0 0c0 61.542786 -49.89032 111.433075 -111.433105 111.433075l0 0c-61.542786 0 -111.433044 -49.89029 -111.433044 -111.433075z" fill-rule="evenodd"/><path fill="#000000" fill-opacity="0.0" d="m368.5694 569.4834l0 0c0 -61.542755 49.89029 -111.433044 111.433075 -111.433044l0 0c29.553894 0 57.89731 11.740234 78.795074 32.638c20.897766 20.897736 32.638 49.24121 32.638 78.795044l0 0c0 61.542786 -49.89032 111.433105 -111.433075 111.433105l0 0c-61.542786 0 -111.433075 -49.89032 -111.433075 -111.433105z" fill-rule="evenodd"/><path stroke="#b7b7b7" stroke-width="24.0" stroke-linejoin="round" stroke-linecap="butt" d="m368.5694 569.4834l0 0c0 -61.542755 49.89029 -111.433044 111.433075 -111.433044l0 0c29.553894 0 57.89731 11.740234 78.795074 32.638c20.897766 20.897736 32.638 49.24121 32.638 78.795044l0 0c0 61.542786 -49.89032 111.433105 -111.433075 111.433105l0 0c-61.542786 0 -111.433075 -49.89032 -111.433075 -111.433105z" fill-rule="evenodd"/><path fill="#b7b7b7" d="m356.9647 149.93022l50.635986 110.81282l-26.846802 26.846802l-110.812805 -50.636z" fill-rule="evenodd"/><path fill="#b7b7b7" d="m683.06537 244.32454l-110.812805 50.636l-26.846802 -26.846802l50.635986 -110.81282z" fill-rule="evenodd"/><path fill="#b7b7b7" d="m269.86493 486.49503l108.44318 -55.53772l28.027008 25.626617l-45.63556 112.96619z" fill-rule="evenodd"/><path fill="#b7b7b7" d="m601.19305 569.7845l-50.635986 -110.812805l26.846802 -26.846802l110.812805 50.636017z" fill-rule="evenodd"/><path fill="#b7b7b7" d="m380.42078 43.20506l-8.139404 139.05891l-64.79205 64.81131l-139.03703 8.16127z" fill-rule="evenodd"/><path fill="#b7b7b7" d="m792.77405 255.19247l-139.05896 -8.139404l-64.81128 -64.79205l-8.161255 -139.03705z" fill-rule="evenodd"/><path fill="#b7b7b7" d="m168.43338 462.56766l139.0589 8.139404l64.81131 64.79202l8.161285 139.03705z" fill-rule="evenodd"/><path fill="#b7b7b7" d="m580.7866 674.55505l8.139404 -139.0589l64.79205 -64.81131l139.03705 -8.161285z" fill-rule="evenodd"/><path fill="#000000" fill-opacity="0.0" d="m417.43753 360.00446l0 0c0 -34.55478 28.012146 -62.566925 62.566925 -62.566925l0 0c16.59378 0 32.507935 6.591858 44.241516 18.325409c11.733582 11.733582 18.325378 27.647736 18.325378 44.241516l0 0c0 34.55475 -28.012146 62.566925 -62.566895 62.566925l0 0c-34.55478 0 -62.566925 -28.012177 -62.566925 -62.566925z" fill-rule="evenodd"/><path stroke="#f3f3f3" stroke-width="1.0" stroke-linejoin="round" stroke-linecap="butt" d="m417.43753 360.00446l0 0c0 -34.55478 28.012146 -62.566925 62.566925 -62.566925l0 0c16.59378 0 32.507935 6.591858 44.241516 18.325409c11.733582 11.733582 18.325378 27.647736 18.325378 44.241516l0 0c0 34.55475 -28.012146 62.566925 -62.566895 62.566925l0 0c-34.55478 0 -62.566925 -28.012177 -62.566925 -62.566925z" fill-rule="evenodd"/><path fill="#000000" fill-opacity="0.0" d="m398.35208 315.26855l0 0c0 -20.308441 16.463257 -36.771667 36.771667 -36.771667l0 0c9.752441 0 19.105469 3.8741455 26.001495 10.770172c6.895996 6.8960266 10.770142 16.249054 10.770142 26.001495l0 0c0 20.30841 -16.463226 36.771637 -36.771637 36.771637l0 0c-20.30841 0 -36.771667 -16.463226 -36.771667 -36.771637z" fill-rule="evenodd"/><path stroke="#b7b7b7" stroke-width="24.0" stroke-linejoin="round" stroke-linecap="butt" d="m398.35208 315.26855l0 0c0 -20.308441 16.463257 -36.771667 36.771667 -36.771667l0 0c9.752441 0 19.105469 3.8741455 26.001495 10.770172c6.895996 6.8960266 10.770142 16.249054 10.770142 26.001495l0 0c0 20.30841 -16.463226 36.771637 -36.771637 36.771637l0 0c-20.30841 0 -36.771667 -16.463226 -36.771667 -36.771637z" fill-rule="evenodd"/><path fill="#000000" fill-opacity="0.0" d="m488.27298 315.26855l0 0c0 -20.308441 16.463226 -36.771667 36.771637 -36.771667l0 0c9.752441 0 19.105469 3.8741455 26.001526 10.770172c6.895996 6.8960266 10.770142 16.249054 10.770142 26.001495l0 0c0 20.30841 -16.463196 36.771637 -36.771667 36.771637l0 0c-20.30841 0 -36.771637 -16.463226 -36.771637 -36.771637z" fill-rule="evenodd"/><path stroke="#b7b7b7" stroke-width="24.0" stroke-linejoin="round" stroke-linecap="butt" d="m488.27298 315.26855l0 0c0 -20.308441 16.463226 -36.771667 36.771637 -36.771667l0 0c9.752441 0 19.105469 3.8741455 26.001526 10.770172c6.895996 6.8960266 10.770142 16.249054 10.770142 26.001495l0 0c0 20.30841 -16.463196 36.771637 -36.771667 36.771637l0 0c-20.30841 0 -36.771637 -16.463226 -36.771637 -36.771637z" fill-rule="evenodd"/><path fill="#000000" fill-opacity="0.0" d="m398.4969 405.04593l0 0c0 -20.308441 16.463226 -36.771667 36.771667 -36.771667l0 0c9.752441 0 19.105469 3.8741455 26.001465 10.770172c6.8960266 6.8960266 10.770172 16.249023 10.770172 26.001495l0 0c0 20.30841 -16.463226 36.771637 -36.771637 36.771637l0 0c-20.308441 0 -36.771667 -16.463226 -36.771667 -36.771637z" fill-rule="evenodd"/><path stroke="#b7b7b7" stroke-width="24.0" stroke-linejoin="round" stroke-linecap="butt" d="m398.4969 405.04593l0 0c0 -20.308441 16.463226 -36.771667 36.771667 -36.771667l0 0c9.752441 0 19.105469 3.8741455 26.001465 10.770172c6.8960266 6.8960266 10.770172 16.249023 10.770172 26.001495l0 0c0 20.30841 -16.463226 36.771637 -36.771637 36.771637l0 0c-20.308441 0 -36.771667 -16.463226 -36.771667 -36.771637z" fill-rule="evenodd"/><path fill="#000000" fill-opacity="0.0" d="m488.56387 405.3355l0 0c0 -20.30841 16.463226 -36.771637 36.771637 -36.771637l0 0c9.752441 0 19.105469 3.8741455 26.001465 10.770172c6.896057 6.895996 10.770203 16.249023 10.770203 26.001465l0 0c0 20.308441 -16.463257 36.771667 -36.771667 36.771667l0 0c-20.30841 0 -36.771637 -16.463226 -36.771637 -36.771667z" fill-rule="evenodd"/><path stroke="#b7b7b7" stroke-width="24.0" stroke-linejoin="round" stroke-linecap="butt" d="m488.56387 405.3355l0 0c0 -20.30841 16.463226 -36.771637 36.771637 -36.771637l0 0c9.752441 0 19.105469 3.8741455 26.001465 10.770172c6.896057 6.895996 10.770203 16.249023 10.770203 26.001465l0 0c0 20.308441 -16.463257 36.771667 -36.771667 36.771667l0 0c-20.30841 0 -36.771637 -16.463226 -36.771637 -36.771667z" fill-rule="evenodd"/></g></svg>